<svg width="12" height="10" viewBox="0 0 12 10" fill="none" xmlns="http://www.w3.org/2000/svg">
<path d="M0.700491 4.32927H9.62197L6.26476 1.15854C6.1197 1.02642 6.04716 0.868903 6.04716 0.685976C6.04716 0.503048 6.11192 0.342988 6.24145 0.205793C6.37097 0.0685969 6.52899 0 6.7155 0C6.90201 0 7.0678 0.060975 7.21286 0.182927L11.7824 4.5122C11.9275 4.64431 12 4.80437 12 4.99238C12 5.18039 11.9275 5.34045 11.7824 5.47256L7.18178 9.81707C7.04707 9.93902 6.89165 10 6.7155 10C6.51862 10 6.35284 9.92886 6.21813 9.78659C6.08343 9.65447 6.01867 9.49695 6.02385 9.31402C6.02903 9.1311 6.09897 8.97358 6.23368 8.84146L9.59089 5.67073H0.684949C0.508798 5.67073 0.353373 5.60976 0.218669 5.4878C0.0839654 5.36585 0.0114337 5.2185 0.00107193 5.04573C-0.00928989 4.85264 0.0554705 4.68496 0.195355 4.54268C0.33524 4.40041 0.503617 4.32927 0.700491 4.32927Z" fill="#3A8ECC"/>
</svg>
