<svg width="46" height="46" viewBox="0 0 46 46" fill="none" xmlns="http://www.w3.org/2000/svg">
<path fill-rule="evenodd" clip-rule="evenodd" d="M11.8385 2.86646C7.25467 5.3832 3.64803 9.4325 1.68284 14.268C0.567584 17.0121 0.00343816 19.9421 0 22.8717V22.9263C0.00243537 25.067 0.304421 27.2065 0.909538 29.272C1.07185 29.8257 1.65247 30.1428 2.20573 29.9807C2.75927 29.8185 3.07658 29.2382 2.91442 28.6845C1.6082 24.2259 1.85818 19.3856 3.61838 15.0545C5.40322 10.6624 8.6795 6.98424 12.8438 4.69772C17.6989 2.03214 23.301 1.4167 28.619 2.96459C33.9368 4.51263 38.3334 8.03889 40.9991 12.8939C46.5019 22.9158 42.8251 35.5462 32.8031 41.049C28.4343 43.4478 23.3483 44.1936 18.482 43.1491C17.9174 43.0285 17.3626 43.3874 17.2415 43.9512C17.1203 44.5155 17.4796 45.0708 18.0435 45.1918C19.6248 45.5312 21.2256 45.699 22.8222 45.6988C26.6356 45.6985 30.4187 44.7416 33.8086 42.8804C39.1527 39.9461 43.0341 35.1066 44.7382 29.2528C46.4421 23.3992 45.7647 17.2324 42.8302 11.8883C39.896 6.5443 35.0565 2.66275 29.2029 0.958713C27.089 0.343281 24.9337 0.0385742 22.7916 0.0385742C19.002 0.038431 15.2524 0.991948 11.8385 2.86646ZM5.93269 22.8734C5.93269 32.2907 13.5942 39.9525 23.0116 39.9525C26.9248 39.9525 30.7486 38.5954 33.7792 36.1314C36.766 33.7028 38.8651 30.3066 39.6899 26.5683C39.8141 26.005 39.4582 25.4475 38.8948 25.3233C38.3318 25.1989 37.774 25.5548 37.6496 26.1182C36.9262 29.3978 35.0836 32.3782 32.4611 34.5105C29.8019 36.6725 26.4461 37.8632 23.0116 37.8632C14.7463 37.8632 8.02181 31.1388 8.02181 22.8734C8.02181 14.6079 14.7463 7.88346 23.0116 7.88346C27.9765 7.88346 32.6114 10.3367 35.4104 14.4462C35.7351 14.923 36.3849 15.0462 36.8617 14.7214C37.3385 14.3966 37.4617 13.7468 37.137 13.2701C33.9487 8.589 28.6683 5.79435 23.0116 5.79435C13.5942 5.79435 5.93269 13.456 5.93269 22.8734ZM18.229 14.9442V16.8773H16.1846C15.5809 16.8773 15.0918 17.3666 15.0918 17.9702C15.0918 18.5737 15.5809 19.0629 16.1846 19.0629H18.229V25.7214C18.229 28.1781 19.6101 30.3627 21.8336 31.4224C22.7052 31.838 23.6298 32.042 24.5459 32.042C25.9422 32.0419 27.3186 31.5678 28.457 30.6451C28.6077 30.5232 28.7592 30.3923 28.9081 30.256C29.4165 29.7899 29.451 28.9999 28.9852 28.4912C28.519 27.9828 27.7292 27.9486 27.2204 28.4143C27.1088 28.5166 26.9959 28.6142 26.8843 28.7044C25.7375 29.6343 24.2512 29.8076 22.9082 29.1677C21.5424 28.5166 20.727 27.2283 20.727 25.7214V19.0629H28.2051C28.8088 19.0629 29.298 18.5737 29.298 17.9702C29.298 17.3666 28.8088 16.8773 28.2051 16.8773H20.727V14.9442C20.727 14.2544 20.1678 13.6951 19.4782 13.6951C18.7884 13.6951 18.229 14.2544 18.229 14.9442Z" fill="url(#paint0_linear)"/>
<defs>
<linearGradient id="paint0_linear" x1="0" y1="45.6988" x2="45.6584" y2="45.6988" gradientUnits="userSpaceOnUse">
<stop stop-color="#FF694D"/>
<stop offset="1" stop-color="#FFCC4D"/>
</linearGradient>
</defs>
</svg>
