<?xml version="1.0" encoding="UTF-8"?>
<svg width="32px" height="32px" viewBox="0 0 32 32" version="1.1" xmlns="http://www.w3.org/2000/svg" xmlns:xlink="http://www.w3.org/1999/xlink">
    <!-- Generator: Sketch 55.1 (78136) - https://sketchapp.com -->
    <title>no icon</title>
    <desc>Created with Sketch.</desc>
    <g id="Page-1" stroke="none" stroke-width="1" fill="none" fill-rule="evenodd">
        <g id="Home-2" transform="translate(-309.000000, -695.000000)">
            <g id="no-icon" transform="translate(309.000000, 695.000000)">
                <circle id="Oval" fill="#424A5F" cx="16" cy="16" r="16"></circle>
                <path d="M21.875,10 C22.1875016,10 22.4531239,10.1090898 22.671875,10.3272727 C22.8906261,10.5454556 23,10.8103881 23,11.1220779 L23,20.8779221 C23,21.1792223 22.8906261,21.4415573 22.671875,21.6649351 C22.4531239,21.8883128 22.1875016,22 21.875,22 L10.125,22 C9.81249844,22 9.54687609,21.8883128 9.328125,21.6649351 C9.10937391,21.4415573 9,21.1792223 9,20.8779221 L9,11.1220779 C9,10.8207777 9.10937391,10.5584427 9.328125,10.3350649 C9.54687609,10.1116872 9.81249844,10 10.125,10 L21.875,10 Z M21.875,20.8779221 L21.875,18.2441558 L19.671875,17.2 L17.15625,18.8987013 C17.0416661,18.9714289 16.9140632,19.0000001 16.7734375,18.9844156 C16.6328118,18.9688311 16.5156255,18.9090914 16.421875,18.8051948 L13.03125,14.5974026 L10.125,17.5584416 L10.125,20.8779221 L21.875,20.8779221 Z M21.875,16.825974 L21.875,11.1220779 L10.125,11.1220779 L10.125,15.9532468 L12.640625,13.3818182 C12.7552089,13.2675319 12.8958325,13.2103896 13.0625,13.2103896 C13.2291675,13.2103896 13.3645828,13.2727266 13.46875,13.3974026 L16.9375,17.6831169 L19.375,16.0467532 C19.5937511,15.901298 19.8124989,15.9116875 20.03125,16.0779221 L21.875,16.825974 Z M20.015625,12.7428571 C20.328125,13.0441574 20.484375,13.4129848 20.484375,13.8493506 C20.484375,14.2857165 20.3307307,14.6571413 20.0234375,14.9636364 C19.7161443,15.2701314 19.3437522,15.4233766 18.90625,15.4233766 C18.4687478,15.4233766 18.0963557,15.2701314 17.7890625,14.9636364 C17.4817693,14.6571413 17.328125,14.2857165 17.328125,13.8493506 C17.328125,13.4129848 17.4817693,13.04156 17.7890625,12.7350649 C18.0963557,12.4285699 18.4687478,12.2753247 18.90625,12.2753247 C19.3437522,12.2753247 19.7135402,12.4311673 20.015625,12.7428571 Z M19.21875,14.1766234 C19.3125005,14.0831164 19.359375,13.9740266 19.359375,13.8493506 C19.359375,13.7246747 19.3151046,13.6181823 19.2265625,13.5298701 C19.1380204,13.441558 19.0312506,13.3974026 18.90625,13.3974026 C18.7812494,13.3974026 18.6744796,13.441558 18.5859375,13.5298701 C18.4973954,13.6181823 18.453125,13.7246747 18.453125,13.8493506 C18.453125,13.9740266 18.4973954,14.080519 18.5859375,14.1688312 C18.6744796,14.2571433 18.7812494,14.3012987 18.90625,14.3012987 C19.0312506,14.3012987 19.1354162,14.2597407 19.21875,14.1766234 Z" id="" fill="#2C3246" fill-rule="nonzero"></path>
            </g>
        </g>
    </g>
</svg>