<?xml version="1.0" encoding="UTF-8"?>
<svg width="246px" height="126px" viewBox="0 0 246 126" version="1.1" xmlns="http://www.w3.org/2000/svg" xmlns:xlink="http://www.w3.org/1999/xlink">
    <!-- Generator: Sketch 55.1 (78136) - https://sketchapp.com -->
    <title>visual-showwallet</title>
    <desc>Created with Sketch.</desc>
    <defs>
        <polygon id="path-1" points="0.155693689 0.0887847305 19.5396198 0.0887847305 19.5396198 14.9924709 0.155693689 14.9924709"></polygon>
        <polygon id="path-3" points="0 125.622754 245.321057 125.622754 245.321057 0.0658293413 0 0.0658293413"></polygon>
        <path d="M0.0682814371,7.21632934 C0.0682814371,11.1466617 3.25449701,14.3328772 7.18482934,14.3328772 L7.18482934,14.3328772 C11.1151617,14.3328772 14.3013772,11.1466617 14.3013772,7.21632934 L14.3013772,7.21632934 C14.3013772,3.28561976 11.1151617,0.0994041916 7.18482934,0.0994041916 L7.18482934,0.0994041916 C3.25449701,0.0994041916 0.0682814371,3.28561976 0.0682814371,7.21632934" id="path-5"></path>
        <path d="M0.0682814371,7.21632934 C0.0682814371,11.1466617 3.25449701,14.3328772 7.18482934,14.3328772 L7.18482934,14.3328772 C11.1151617,14.3328772 14.3013772,11.1466617 14.3013772,7.21632934 L14.3013772,7.21632934 C14.3013772,3.28561976 11.1151617,0.0994041916 7.18482934,0.0994041916 L7.18482934,0.0994041916 C3.25449701,0.0994041916 0.0682814371,3.28561976 0.0682814371,7.21632934" id="path-7"></path>
        <path d="M0.0682814371,7.21632934 C0.0682814371,11.1466617 3.25449701,14.3328772 7.18482934,14.3328772 L7.18482934,14.3328772 C11.1151617,14.3328772 14.3013772,11.1466617 14.3013772,7.21632934 L14.3013772,7.21632934 C14.3013772,3.28561976 11.1151617,0.0994041916 7.18482934,0.0994041916 L7.18482934,0.0994041916 C3.25449701,0.0994041916 0.0682814371,3.28561976 0.0682814371,7.21632934 L0.0682814371,7.21632934 Z" id="path-9"></path>
    </defs>
    <g id="Page-1" stroke="none" stroke-width="1" fill="none" fill-rule="evenodd">
        <g id="Home-5" transform="translate(-837.000000, -396.000000)">
            <g id="visual-showwallet" transform="translate(837.000000, 396.000000)">
                <g id="Group-76" transform="translate(0.000000, 0.122793)">
                    <path d="M206.266734,43.1122581 C206.024354,44.3918749 204.977875,45.4383539 203.698447,45.6809228 C201.395363,46.1177731 199.413504,44.1361024 199.849788,41.8328299 C200.092357,40.5534018 201.138648,39.5067341 202.418076,39.2641653 C204.721348,38.8275036 206.703019,40.8089856 206.266734,43.1122581 M211.447636,41.1424707 L209.873201,41.1424707 C209.507085,41.1424707 209.180579,40.9083898 209.06948,40.559815 C208.960833,40.2195395 208.823893,39.8919018 208.661678,39.5793539 C208.492294,39.2530365 208.556426,38.8554198 208.816348,38.5954976 L209.93092,37.4809257 C210.263273,37.1487611 210.263273,36.6096772 209.93092,36.2775126 L209.253387,35.5999796 C208.921034,35.2676263 208.382139,35.2676263 208.049785,35.5999796 L206.935213,36.7145515 C206.675291,36.9744737 206.277863,37.0384168 205.951546,36.8692222 C205.638998,36.7070066 205.311549,36.5700665 204.971085,36.4616084 C204.622321,36.3505096 204.388429,36.023815 204.388429,35.6576982 L204.388429,34.0832641 C204.388429,33.6134048 204.007222,33.2323868 203.537175,33.2323868 L202.57916,33.2323868 C202.109112,33.2323868 201.728094,33.6134048 201.728094,34.0832641 L201.728094,35.6576982 C201.728094,36.023815 201.494201,36.3505096 201.145438,36.4616084 C200.805163,36.5700665 200.477525,36.7070066 200.164977,36.8692222 C199.83866,37.0384168 199.441231,36.9744737 199.181309,36.7145515 L198.066549,35.5999796 C197.734384,35.2676263 197.195489,35.2676263 196.863136,35.5999796 L196.185603,36.2775126 C195.853249,36.6096772 195.853249,37.1487611 196.185603,37.4809257 L197.300175,38.5954976 C197.560097,38.8554198 197.624228,39.2530365 197.455034,39.5793539 C197.292818,39.8919018 197.15569,40.2195395 197.047231,40.559815 C196.935944,40.9083898 196.609438,41.1424707 196.243321,41.1424707 L194.669076,41.1424707 C194.198839,41.1424707 193.81801,41.5234886 193.81801,41.9935365 L193.81801,42.9515515 C193.81801,43.4215994 194.198839,43.8026174 194.669076,43.8026174 L196.243321,43.8026174 C196.609438,43.8026174 196.935944,44.0365096 197.047231,44.3852731 C197.15569,44.7255485 197.292818,45.0531862 197.455034,45.3659228 C197.624228,45.6920515 197.560097,46.0896683 197.300175,46.3495904 L196.185603,47.4643509 C195.853249,47.7965156 195.853249,48.3354108 196.185603,48.6675754 L196.863136,49.3451084 C197.195489,49.6776503 197.734384,49.6776503 198.066549,49.3451084 L199.181309,48.2305365 C199.441231,47.9706144 199.83866,47.9066713 200.164977,48.0758659 C200.477525,48.2382701 200.805163,48.3752102 201.145627,48.4838569 C201.494201,48.5949557 201.728094,48.9216503 201.728094,49.2875784 L201.728094,50.8616353 C201.728094,51.3316832 202.109112,51.7127012 202.57916,51.7127012 L203.537175,51.7127012 C204.007222,51.7127012 204.388429,51.3316832 204.388429,50.8616353 L204.388429,49.2875784 C204.388429,48.9214617 204.622321,48.5949557 204.970896,48.4836683 C205.31136,48.3748329 205.638998,48.2378928 205.951546,48.0758659 C206.277863,47.9066713 206.675291,47.9706144 206.935213,48.2305365 L208.049785,49.3451084 C208.382139,49.6776503 208.921034,49.6776503 209.253387,49.3451084 L209.93092,48.6675754 C210.263273,48.3354108 210.263273,47.7965156 209.93092,47.4643509 L208.816348,46.3495904 C208.556426,46.0896683 208.492294,45.6920515 208.661678,45.3659228 C208.823893,45.0531862 208.960833,44.7255485 209.06948,44.3852731 C209.180579,44.0365096 209.507085,43.8026174 209.873201,43.8026174 L211.447636,43.8026174 C211.917495,43.8026174 212.298513,43.4215994 212.298513,42.9515515 L212.298513,41.9935365 C212.298513,41.5234886 211.917495,41.1424707 211.447636,41.1424707" id="Fill-1" fill="#54B1FE"></path>
                    <polygon id="Fill-3" fill="#FFFFFF" points="176.376403 18.9612647 180.069071 20.9808485 176.376403 23.0004323 174.356819 26.6929114 172.337236 23.0004323 168.644757 20.9808485 172.337236 18.9612647 174.356819 15.268597"></polygon>
                    <polygon id="Fill-5" fill="#FFFFFF" points="185.325384 25.5235446 187.463234 26.6928171 185.325384 27.8622781 184.156111 30.0001284 182.986839 27.8622781 180.8488 26.6928171 182.986839 25.5235446 184.156111 23.3856943"></polygon>
                    <polygon id="Fill-7" fill="#FFFFFF" points="39.2098042 15.6539156 35.5171365 17.6734994 39.2098042 19.6930832 41.229388 23.3855623 43.2489719 19.6930832 46.9414509 17.6734994 43.2489719 15.6539156 41.229388 11.9612479"></polygon>
                    <polygon id="Fill-9" fill="#FFFFFF" points="30.260824 22.2162898 28.122785 23.3855623 30.260824 24.5548347 31.4300964 26.6928737 32.5993689 24.5548347 34.7374078 23.3855623 32.5993689 22.2162898 31.4300964 20.0782509"></polygon>
                    <g id="Group-13" transform="translate(225.781437, 99.404192)">
                        <mask id="mask-2" fill="white">
                            <use xlink:href="#path-1"></use>
                        </mask>
                        <g id="Clip-12"></g>
                        <path d="M17.1956425,4.30054222 C17.9390048,5.67013204 19.5396575,4.71117395 19.5396575,4.71117395 C19.5396575,4.71117395 19.4476096,4.25998832 18.7289569,3.88255419 C18.1932683,3.60112904 17.4227443,3.83407814 17.1501844,3.9323506 L16.2670527,3.90933862 L16.2532832,3.90952725 C16.0567383,3.91914701 15.861891,3.93480269 15.6676096,3.9530991 C18.1864778,3.06355419 16.9994749,0.0887847305 16.9994749,0.0887847305 C16.9994749,0.0887847305 16.2085796,0.121039222 15.3705287,1.23768593 C14.6980886,2.13345539 14.9625377,3.65413204 15.0408162,4.02741647 C14.0354569,4.17133563 13.0651814,4.42654222 12.1382892,4.76097036 C12.2580647,4.64553323 12.3806695,4.51500629 12.5051605,4.36599431 C13.4654389,3.21652725 13.0417922,1.03548234 13.0417922,1.03548234 C9.6031994,1.4770482 10.2877114,4.71136257 10.4919898,5.45359311 C9.36817545,5.99437455 8.32603473,6.63399431 7.38367545,7.3028506 C7.62567844,6.9687997 7.8789988,6.48837754 8.06196287,5.80650629 C8.49617246,4.18755719 7.04000479,2.17231168 7.04000479,2.17231168 C3.66931617,4.29299731 6.09406168,7.35811707 6.57014551,7.9055003 C5.96523234,8.37234162 5.40973832,8.84295539 4.91045389,9.29508413 C4.36250479,9.79116198 3.85737305,10.2864853 3.39826527,10.7625692 C3.56632814,10.3113835 3.70760659,9.59857814 3.57160958,8.57680868 C3.32998383,6.76018293 1.01331916,5.33721287 1.01331916,5.33721287 C-1.44198323,8.81428473 2.07168144,10.8753656 2.89501976,11.2959943 C1.33303473,12.9886949 0.430852096,14.3177308 0.418591617,14.3360272 L0.722651497,14.5410602 C0.732648503,14.5263476 1.32322635,13.6566081 2.37291198,12.4335781 C3.6745976,16.555174 8.1541994,14.4599524 8.1541994,14.4599524 C8.1541994,14.4599524 8.04291198,13.3353835 6.38246587,12.2328835 C5.31203174,11.522153 3.71703772,11.7068147 2.85861557,11.8805362 C3.50219641,11.1635811 4.27649281,10.3638207 5.16320838,9.56123084 C5.45500778,9.29697036 5.76717844,9.02629671 6.09651377,8.75373683 C7.24994192,12.643138 11.4109599,10.6976829 11.4109599,10.6976829 C11.4109599,10.6976829 11.3091036,9.66931168 9.7905018,8.66074581 C8.83550479,8.02678473 7.42366347,8.17164701 6.62635509,8.32688353 C7.58814251,7.57182665 8.68290898,6.82167395 9.88443593,6.17507515 C10.5964868,9.85246437 14.5107862,8.36988952 14.5107862,8.36988952 C14.5107862,8.36988952 14.4892832,7.44658114 13.2041964,6.44593743 C12.3635048,5.79141647 11.0261695,5.85460509 10.3233611,5.94570988 C11.6216515,5.28930269 13.035379,4.76266796 14.5326665,4.48237455 C14.4702323,7.81779072 18.0825467,7.17307814 18.0825467,7.17307814 C18.0825467,7.17307814 18.2102443,6.39180269 17.2858042,5.3457009 C16.5662084,4.53179371 15.092876,4.46219192 14.6571575,4.46030569 C15.183415,4.36693743 15.7192922,4.30318293 16.264412,4.27620988 L17.1956425,4.30054222 Z" id="Fill-11" fill="#F7BD36" mask="url(#mask-2)"></path>
                    </g>
                    <path d="M213.800422,123.532588 C213.800422,123.532588 206.30361,106.609354 211.728212,90.8848186 C217.152625,75.160094 230.250966,70.5652437 230.250966,70.5652437 C230.250966,70.5652437 222.476125,79.5678305 226.989113,93.6096629 C231.257269,106.890214 223.118008,123.532588 223.118008,123.532588 L213.800422,123.532588 Z" id="Fill-14" fill="#04B39C"></path>
                    <path d="M216.452457,123.532588 C216.452457,123.532588 214.532278,89.1049743 222.65494,80.0497617 C215.266398,91.4637018 218.343401,123.532588 218.343401,123.532588 L216.452457,123.532588 Z" id="Fill-16" fill="#00A99D"></path>
                    <path d="M229.329657,123.532588 L221.311493,123.532588 C221.630643,122.120181 222.784637,117.851648 225.662454,114.632046 C229.158954,110.720387 233.569708,111.099708 233.569708,111.099708 C233.569708,111.099708 231.170616,113.73175 230.802613,118.461843 C230.655864,120.34675 230.017942,122.113768 229.329657,123.532588" id="Fill-18" fill="#54B1FE"></path>
                    <path d="M210.788625,104.814364 C216.626311,112.424726 217.935542,122.348169 218.073802,123.532531 L206.725125,123.532531 C203.853533,120.881816 200.333266,116.593855 200.305727,111.436343 C200.256685,102.227403 195.983248,96.7660085 195.983248,96.7660085 C195.983248,96.7660085 204.571054,96.7090554 210.788625,104.814364" id="Fill-20" fill="#ADD0F8"></path>
                    <path d="M223.911356,123.532588 L223.310215,123.532588 C224.451949,120.918654 227.363718,114.792753 230.090449,113.547277 C227.423889,115.335609 224.970095,120.877157 223.911356,123.532588" id="Fill-22" fill="#97D5FF"></path>
                    <path d="M214.487763,123.532588 L213.309248,123.532588 C211.927398,118.962636 207.703568,106.237579 202.372523,102.036007 C207.878422,105.088301 213.021032,119.211995 214.487763,123.532588" id="Fill-24" fill="#75BEF3"></path>
                    <mask id="mask-4" fill="white">
                        <use xlink:href="#path-3"></use>
                    </mask>
                    <g id="Clip-27"></g>
                    <polygon id="Fill-26" fill="#3A62A8" mask="url(#mask-4)" points="200.165713 124.875054 234.000485 124.875054 234.000485 123.532626 200.165713 123.532626"></polygon>
                    <path d="M20.7302066,101.374941 C20.2839251,100.815297 19.7670988,100.291681 19.4883144,99.6341416 C19.0988084,98.7163033 19.2285808,97.6603931 19.5245299,96.7087913 C19.820479,95.7571895 20.2733623,94.8568931 20.5319641,93.8947284 C21.1678114,91.5280787 20.5091407,88.8607644 18.8422814,87.0513063 C18.4729581,86.6504829 18.0562904,86.2870069 17.751476,85.8358213 C17.0439521,84.7882105 17.0396138,83.4255997 17.2280479,82.1791805 C17.416482,80.93295 17.7727904,79.6946416 17.6967754,78.4365278 C17.6051048,76.9188692 16.8506138,75.4515728 15.6649311,74.4850698 C14.5037695,73.5387494 12.9429162,73.2060189 11.4363862,73.1845159 C11.4363862,73.1845159 11.4363862,73.1833841 11.4363862,73.1833841 C11.4205419,73.1828183 11.4046976,73.1837614 11.3888533,73.1837614 C11.373009,73.1835728 11.356976,73.1828183 11.3411317,73.1828183 L11.3411317,73.1841386 C9.83441317,73.1884769 8.27016467,73.5038542 7.09806287,74.4373482 C5.90144012,75.3902704 5.1303503,76.8490787 5.02113772,78.3656057 C4.93078743,79.6227763 5.2729491,80.8650458 5.44723653,82.1133512 C5.62133533,83.3616566 5.60152994,84.7242674 4.88193413,85.7637674 C4.57221557,86.2115578 4.1513982,86.5705069 3.77735928,86.9671805 C2.08994012,88.7577763 1.40108982,91.4175458 2.00977545,93.7911746 C2.2572485,94.7561686 2.69994611,95.6613692 2.98495509,96.6161775 C3.27015269,97.5709859 3.38785329,98.6284051 2.98778443,99.5419051 C2.70145509,100.196049 2.17878144,100.714007 1.72627545,101.268746 C0.0511167665,103.321339 -0.67111976,106.399097 0.780143713,108.612585 C1.35959281,109.49666 2.22254192,110.160612 3.11736826,110.731384 C4.50732934,111.618288 6.03781437,112.325812 7.65902695,112.675707 C8.36956886,112.829058 9.10444311,112.967507 9.81875749,112.78907 C10.2944641,112.670237 10.6573743,112.740028 11.1630719,112.739462 C11.6685808,112.745498 12.0322455,112.679857 12.5066317,112.80416 C13.2186826,112.990519 13.9552545,112.860369 14.667494,112.714941 C16.292479,112.382965 17.8310749,111.692794 19.2310329,110.821546 C20.1322725,110.26077 21.0027665,109.606627 21.5924012,108.729154 C23.0687515,106.531887 22.3817874,103.446207 20.7302066,101.374941" id="Fill-28" fill="#7CB1E5" mask="url(#mask-4)"></path>
                    <path d="M18.8900784,99.2339596 L11.9214108,106.624954 L11.6741263,92.0908159 C12.7245665,90.707268 16.8995425,85.2051422 16.8995425,85.2051422 L11.6516802,90.7710225 L11.5015365,81.9400823 C11.9566832,81.3412051 15.2764437,76.9657231 15.2764437,76.9657231 L11.485315,80.9867829 L11.3796862,74.779774 L11.2538749,82.7421063 L7.62628204,78.8066811 C7.62628204,78.8066811 10.525791,82.7192829 11.2389737,83.6810704 L11.0969407,92.6555524 L5.90943772,87.0274266 C5.90943772,87.0274266 10.0780006,92.6527231 11.075815,93.9981692 L10.8428659,108.719043 L3.75876108,101.033043 C3.75876108,101.033043 10.0876204,109.573504 10.8140066,110.552079 L10.7794886,112.724636 L12.0253419,112.731804 L11.9514018,108.377825 C13.3064677,106.592888 18.8900784,99.2339596 18.8900784,99.2339596" id="Fill-29" fill="#ADD0F8" mask="url(#mask-4)"></path>
                    <polygon id="Fill-30" fill="#ADD0F8" mask="url(#mask-4)" points="10.7924281 115.098737 12.042997 115.098737 12.042997 112.724731 10.7924281 112.724731"></polygon>
                    <polygon id="Fill-31" fill="#3A62A8" mask="url(#mask-4)" points="5.88140838 115.128199 16.9541299 115.128199 14.8798455 123.795226 7.98606108 123.795226"></polygon>
                    <polygon id="Fill-32" fill="#FFE06E" mask="url(#mask-4)" points="5.88144611 115.128162 16.9541677 115.128162 16.9541677 114.471 5.88144611 114.471"></polygon>
                    <path d="M140.521689,9.86472485 C139.219626,9.84944641 138.176353,8.78165299 138.191632,7.47959012 C138.20691,6.17752725 139.274704,5.13425479 140.576766,5.14934461 C141.878829,5.16481168 142.922102,6.23260509 142.907012,7.53466796 C142.891734,8.83673084 141.823751,9.88000329 140.521689,9.86472485 M140.598458,3.29291946 C138.417979,3.26726677 136.629458,5.01447934 136.603994,7.19514701 C136.57853,9.37562605 139.256219,15.1167368 140.460198,15.130722 C141.684925,15.1450302 144.475222,9.46786257 144.500686,7.28738353 C144.52615,5.10671587 142.779126,3.31838353 140.598458,3.29291946" id="Fill-33" fill="#54B1FE" mask="url(#mask-4)"></path>
                    <polygon id="Fill-34" fill="#FFFFFF" mask="url(#mask-4)" points="155.972533 29.5869503 135.459808 27.6897826 152.543749 41.4249144 153.519117 35.9135461 157.166892 34.3804204 141.575713 29.2587467 155.278024 32.2708635 156.339593 31.3409533 158.127359 29.7744413"></polygon>
                    <path d="M162.462155,35.9730377 L162.240712,36.537397 C161.927976,36.4130946 161.613542,36.2931305 161.297976,36.1769389 L161.509045,35.6088072 C161.828194,35.7261305 162.146024,35.8472263 162.462155,35.9730377" id="Fill-35" fill="#FFFFFF" mask="url(#mask-4)"></path>
                    <polygon id="Fill-36" fill="#FFFFFF" mask="url(#mask-4)" points="159.784787 34.997047 160.748461 35.3316638 160.545126 35.9028135 159.591638 35.5715919"></polygon>
                    <polygon id="Fill-37" fill="#FFFFFF" mask="url(#mask-4)" points="158.044082 34.4453632 159.020771 34.7465937 158.836109 35.3241566 157.872624 35.0268871"></polygon>
                    <polygon id="Fill-38" fill="#FFFFFF" mask="url(#mask-4)" points="166.285369 38.3304638 166.558117 37.7891165 167.465959 38.2621823 167.178875 38.7961734"></polygon>
                    <path d="M164.902462,37.0011638 C165.211049,37.1456488 165.523597,37.2805141 165.828977,37.4329213 L165.566603,37.9793614 C165.26575,37.8292177 164.956786,37.69605 164.652537,37.5534512 L164.902462,37.0011638 Z" id="Fill-39" fill="#FFFFFF" mask="url(#mask-4)"></path>
                    <path d="M164.166569,36.6759593 L163.925698,37.2322078 C163.618243,37.0962108 163.307393,36.9673814 162.995788,36.8404383 L163.225719,36.2794743 C163.540908,36.4079263 163.855153,36.5382647 164.166569,36.6759593" id="Fill-40" fill="#FFFFFF" mask="url(#mask-4)"></path>
                    <path d="M171.262312,40.6893422 C171.528648,40.9088991 171.803471,41.1167614 172.062261,41.3465039 L171.66389,41.8033482 C171.414719,41.5820937 171.14763,41.3806446 170.890348,41.1680668 L171.262312,40.6893422 Z" id="Fill-41" fill="#FFFFFF" mask="url(#mask-4)"></path>
                    <path d="M170.604151,40.2020353 L170.250672,40.6945293 C169.983959,40.4928916 169.701591,40.312191 169.422241,40.1275293 L169.754594,39.6205114 C170.040735,39.8095114 170.329139,39.9945503 170.604151,40.2020353" id="Fill-42" fill="#FFFFFF" mask="url(#mask-4)"></path>
                    <path d="M167.887908,39.1912437 L168.187818,38.6644204 C168.488294,38.8268246 168.777641,39.0109204 169.07095,39.1867168 L168.753875,39.7033545 C168.466037,39.5311419 168.183291,39.3510072 167.887908,39.1912437" id="Fill-43" fill="#FFFFFF" mask="url(#mask-4)"></path>
                    <path d="M174.349897,45.1871084 L174.90275,44.9381263 C175.042143,45.2655754 175.161163,45.606794 175.267924,45.9480126 L174.682816,46.1066443 C174.584732,45.7971144 174.477217,45.4872072 174.349897,45.1871084" id="Fill-44" fill="#FFFFFF" mask="url(#mask-4)"></path>
                    <path d="M173.43866,43.6745237 L173.922855,43.3097272 C174.137131,43.5873799 174.317643,43.8938919 174.515508,44.1851254 L173.993211,44.4927692 C173.806852,44.2209638 173.640675,43.9359548 173.43866,43.6745237" id="Fill-45" fill="#FFFFFF" mask="url(#mask-4)"></path>
                    <polygon id="Fill-46" fill="#FFFFFF" mask="url(#mask-4)" points="172.25875 42.3465251 172.680887 41.9113725 173.402935 42.6654862 172.947789 43.0659323"></polygon>
                    <path d="M174.719051,50.5395431 C174.548158,50.8479413 174.362742,51.1474743 174.184116,51.4511569 L173.67691,51.1191808 C173.843087,50.8343605 174.017563,50.5538784 174.177892,50.266606 L174.719051,50.5395431 Z" id="Fill-47" fill="#FFFFFF" mask="url(#mask-4)"></path>
                    <path d="M174.761038,48.6107623 L175.3552,48.7311036 L175.216939,49.2513251 C175.168463,49.423915 175.132813,49.6017862 175.053215,49.7613611 L174.48546,49.5491605 C174.560532,49.4016575 174.590523,49.240385 174.634472,49.0832623 L174.761038,48.6107623 Z" id="Fill-48" fill="#FFFFFF" mask="url(#mask-4)"></path>
                    <path d="M174.860782,47.363815 L174.836827,46.8775455 L175.438533,46.8036054 L175.466638,47.3455186 C175.475315,47.5262192 175.492102,47.7071084 175.462111,47.8863 L174.857009,47.8495186 C174.885869,47.6882461 174.868704,47.5258419 174.860782,47.363815" id="Fill-49" fill="#FFFFFF" mask="url(#mask-4)"></path>
                    <path d="M171.051772,54.7521494 C170.7794,54.9630296 170.515894,55.1873021 170.227679,55.3740386 L169.875709,54.8806015 C170.157134,54.6983919 170.411209,54.4810985 170.675469,54.2768201 L171.051772,54.7521494 Z" id="Fill-50" fill="#FFFFFF" mask="url(#mask-4)"></path>
                    <polygon id="Fill-51" fill="#FFFFFF" mask="url(#mask-4)" points="172.454276 53.5334766 171.688468 54.2340216 171.291794 53.7756683 172.029498 53.1009647"></polygon>
                    <polygon id="Fill-52" fill="#FFFFFF" mask="url(#mask-4)" points="173.205636 51.765874 173.686624 52.1350087 173.369549 52.5520536 173.016447 52.9355237 172.567148 52.5282871 172.905349 52.1621704"></polygon>
                    <polygon id="Fill-53" fill="#FFFFFF" mask="url(#mask-4)" points="166.352047 57.6648431 165.432134 58.1139539 165.176173 57.5644958 166.081373 57.1223641"></polygon>
                    <polygon id="Fill-54" fill="#FFFFFF" mask="url(#mask-4)" points="167.976881 56.805176 167.076585 57.2963497 166.793651 56.7600952 167.677348 56.2781641"></polygon>
                    <path d="M169.543431,55.845388 C169.263326,56.0451395 168.961907,56.2082982 168.672182,56.3914509 L168.357748,55.8731156 C168.640871,55.6941126 168.937009,55.5343491 169.209191,55.3396904 L169.543431,55.845388 Z" id="Fill-55" fill="#FFFFFF" mask="url(#mask-4)"></path>
                    <polygon id="Fill-56" fill="#FFFFFF" mask="url(#mask-4)" points="161.079815 59.2377494 161.285225 59.8081446 160.321928 60.1423841 160.125761 59.568971"></polygon>
                    <path d="M162.995977,59.1578865 C162.682108,59.2902997 162.362393,59.4057368 162.043809,59.5249464 L161.830099,58.9575692 C162.145288,58.8396799 162.461986,58.7253746 162.771893,58.594659 L162.995977,59.1578865 Z" id="Fill-57" fill="#FFFFFF" mask="url(#mask-4)"></path>
                    <path d="M164.679303,58.4499099 C164.368075,58.5887362 164.057979,58.7305805 163.741093,58.8546943 L163.507955,58.2950506 C163.821258,58.1724458 164.126827,58.0326763 164.433716,57.8957362 L164.679303,58.4499099 Z" id="Fill-58" fill="#FFFFFF" mask="url(#mask-4)"></path>
                    <polygon id="Fill-59" fill="#FFFFFF" mask="url(#mask-4)" points="155.889369 60.8706943 156.050642 61.4550476 155.068672 61.7228919 154.914378 61.1366524"></polygon>
                    <polygon id="Fill-60" fill="#FFFFFF" mask="url(#mask-4)" points="157.631281 60.3698443 157.805757 60.9504251 156.82888 61.2380749 156.661949 60.6552305"></polygon>
                    <polygon id="Fill-61" fill="#FFFFFF" mask="url(#mask-4)" points="159.354765 59.8305153 159.543765 60.4065692 158.572735 60.7149674 158.392035 60.1364614"></polygon>
                    <polygon id="Fill-62" fill="#FFFFFF" mask="url(#mask-4)" points="150.59984 62.1673814 150.727915 62.7598455 149.732741 62.9684623 149.609948 62.3748665"></polygon>
                    <polygon id="Fill-63" fill="#FFFFFF" mask="url(#mask-4)" points="152.36882 61.767388 152.50708 62.3575886 151.515679 62.5845018 151.383077 61.9927922"></polygon>
                    <polygon id="Fill-64" fill="#FFFFFF" mask="url(#mask-4)" points="154.124445 61.3381015 154.273834 61.9256614 153.286583 62.1720027 153.143607 61.5827452"></polygon>
                    <polygon id="Fill-65" fill="#FFFFFF" mask="url(#mask-4)" points="145.248575 63.1926593 145.349111 63.7904048 144.346015 63.954318 144.250383 63.355818"></polygon>
                    <polygon id="Fill-66" fill="#FFFFFF" mask="url(#mask-4)" points="147.035059 62.8769237 147.14446 63.4731602 146.144005 63.652729 146.039508 63.0555494"></polygon>
                    <polygon id="Fill-67" fill="#FFFFFF" mask="url(#mask-4)" points="148.811131 62.5375347 148.929397 63.1320737 147.931771 63.3274868 147.818409 62.7320048"></polygon>
                    <polygon id="Fill-68" fill="#FFFFFF" mask="url(#mask-4)" points="138.852717 64.0908243 139.856567 63.9755757 139.929187 64.577471 138.917414 64.6936626"></polygon>
                    <polygon id="Fill-69" fill="#FFFFFF" mask="url(#mask-4)" points="141.655255 63.742306 141.73806 64.3428808 140.73006 64.4773689 140.652725 63.8760395"></polygon>
                    <polygon id="Fill-70" fill="#FFFFFF" mask="url(#mask-4)" points="143.444511 63.4814784 143.536182 64.0807329 142.530823 64.2304994 142.444056 63.630679"></polygon>
                    <path d="M120.218486,124.186317 L52.6294832,124.186317 C50.1668246,124.186317 48.1704413,122.189934 48.1704413,119.727086 L48.1704413,4.52498443 C48.1704413,2.06232575 50.1668246,0.065942515 52.6294832,0.065942515 L120.218486,0.065942515 C122.681145,0.065942515 124.677717,2.06232575 124.677717,4.52498443 L124.677717,119.727086 C124.677717,122.189934 122.681145,124.186317 120.218486,124.186317" id="Fill-71" fill="#3A62A8" mask="url(#mask-4)"></path>
                    <path d="M87.767356,5.06452096 C87.767356,5.80637425 87.1660266,6.40789222 86.4239847,6.40789222 C85.6821314,6.40789222 85.0806135,5.80637425 85.0806135,5.06452096 C85.0806135,4.32247904 85.6821314,3.7211497 86.4239847,3.7211497 C87.1660266,3.7211497 87.767356,4.32247904 87.767356,5.06452096" id="Fill-72" fill="#ADD0F8" mask="url(#mask-4)"></path>
                    <path d="M50.8508084,117.991059 C50.8508084,119.840694 52.298488,121.339867 54.0841796,121.339867 L118.763865,121.339867 C120.549746,121.339867 121.997237,119.840694 121.997237,117.991059 L121.997237,64.1862296 L50.8508084,64.1862296 L50.8508084,117.991059 Z" id="Fill-73" fill="#D4EDFF" mask="url(#mask-4)"></path>
                    <path d="M117.943507,3.29248563 L95.1420341,3.29248563 C93.8767527,3.29248563 92.8508335,4.31821617 92.8508335,5.5834976 C92.8508335,6.84877904 91.825103,7.87450958 90.5598216,7.87450958 L82.2881479,7.87450958 C81.0228665,7.87450958 79.9971359,6.84877904 79.9971359,5.5834976 C79.9971359,4.31821617 78.9714054,3.29248563 77.706124,3.29248563 L54.9046509,3.29248563 C52.6656988,3.29248563 50.8507707,5.10741377 50.8507707,7.34636587 L50.8507707,64.1861353 L121.997199,64.1861353 L121.997199,7.34617725 C121.997199,5.10741377 120.182271,3.29248563 117.943507,3.29248563" id="Fill-74" fill="#54B1FE" mask="url(#mask-4)"></path>
                    <path d="M94.4661422,24.3809434 C94.4661422,28.3112757 91.2799266,31.4974913 87.3495943,31.4974913 C83.4190734,31.4974913 80.2328578,28.3112757 80.2328578,24.3809434 C80.2328578,20.4504225 83.4190734,17.2642069 87.3495943,17.2642069 C91.2799266,17.2642069 94.4661422,20.4504225 94.4661422,24.3809434" id="Fill-75" fill="#FFFFFF" mask="url(#mask-4)"></path>
                </g>
                <g id="Group-86" transform="translate(80.164671, 17.287464)">
                    <g id="Group-79">
                        <mask id="mask-6" fill="white">
                            <use xlink:href="#path-5"></use>
                        </mask>
                        <g id="Clip-78"></g>
                        <path d="M10.9784668,6.29552964 C10.9631883,6.26138892 10.9437602,6.22630509 10.9101853,6.21008353 C10.8826464,6.19669132 10.8502033,6.19838892 10.819835,6.20272725 C10.7311823,6.21555359 10.6602602,6.25026018 10.5961284,6.29345479 C10.5961284,6.29119132 10.5966943,6.28873922 10.5965057,6.28647575 C10.5949967,6.2230985 10.5917901,6.16028713 10.5885835,6.09747575 C10.5900925,6.08729012 10.5889608,6.07276617 10.5865087,6.05616737 C10.5831135,5.98524521 10.5800955,5.91413443 10.5802841,5.84189192 C10.5804728,5.67288593 10.5804728,5.50369132 10.5806614,5.33449671 L10.5806614,5.03477515 C10.51785,3.6699009 7.1432003,3.54937096 7.1432003,3.54937096 C7.1432003,3.54937096 3.7685506,3.6699009 3.70573922,5.03477515 L3.70573922,5.33449671 C3.70592784,5.50369132 3.70611647,5.67288593 3.70630509,5.84189192 C3.70630509,5.91413443 3.70347575,5.98524521 3.69989192,6.05616737 C3.69743982,6.07276617 3.69649671,6.08729012 3.69781707,6.09747575 C3.69461048,6.16028713 3.69140389,6.2230985 3.68989491,6.28647575 C3.68989491,6.28873922 3.69027216,6.29119132 3.69027216,6.29345479 C3.62614042,6.25026018 3.55521826,6.21555359 3.46675419,6.20272725 C3.43619731,6.19838892 3.40375419,6.19669132 3.37621527,6.21008353 C3.34282904,6.22630509 3.32321228,6.26138892 3.30793383,6.29552964 C3.20852964,6.51961347 3.21456557,6.77991287 3.28001766,7.01644581 C3.34528114,7.25297874 3.46581108,7.47008353 3.59162246,7.68077515 C3.73629611,7.92315539 3.92001467,8.17553263 4.18842485,8.24871826 C4.38308353,8.67632605 4.60961946,9.09242784 4.88557455,9.47155958 C5.19812246,9.90161946 5.57385898,10.2962183 6.03598473,10.559347 C6.3722991,10.7509877 6.7585985,10.8649159 7.1432003,10.8666135 C7.52799072,10.8649159 7.91429012,10.7509877 8.25060449,10.559347 C8.71254162,10.2962183 9.08827814,9.90161946 9.40101467,9.47155958 C9.67696976,9.09242784 9.90350569,8.67632605 10.0981644,8.24871826 C10.3665746,8.17553263 10.5501045,7.92315539 10.6949668,7.68077515 C10.8205895,7.47008353 10.9411195,7.25297874 11.0063829,7.01644581 C11.071835,6.77991287 11.077871,6.51961347 10.9784668,6.29552964" id="Fill-77" fill="#CB957B" mask="url(#mask-6)"></path>
                    </g>
                    <g id="Group-82">
                        <mask id="mask-8" fill="white">
                            <use xlink:href="#path-7"></use>
                        </mask>
                        <g id="Clip-81"></g>
                        <path d="M4.07992904,6.95193683 C4.07992904,6.95193683 3.83981228,6.20876317 4.13991108,5.96091287 C4.44038713,5.7132512 4.23007275,3.95660749 4.59807575,4.04658054 C4.96589012,4.13674222 6.56484521,4.74467335 7.48815359,4.48946677 C8.4116506,4.23426018 8.6744021,3.81382006 9.08729731,3.97150868 C9.50019251,4.12919731 10.1083123,4.52719132 10.1682943,5.22528413 C10.228465,5.92337695 10.3710638,6.02843982 10.4761266,6.13369132 C10.5811895,6.23875419 10.5136626,6.92194581 10.5136626,6.92194581 C10.5136626,6.92194581 11.3920787,3.83645479 10.6489051,2.98802964 C9.90554281,2.13979311 9.40267455,2.04963144 9.40267455,2.04963144 C9.40267455,2.04963144 8.84699192,0.623266168 7.25558174,0.916008683 C5.66398293,1.2087512 4.09501886,2.60531407 3.79473144,2.59022425 C3.49444401,2.57513443 3.49444401,2.5375985 3.49444401,2.5375985 C3.49444401,2.5375985 3.6070518,2.87542186 3.71965958,3.03311048 C3.83226737,3.1907991 3.01383323,5.0451494 3.83981228,6.72672126 C3.99731228,7.07963443 4.07992904,6.95193683 4.07992904,6.95193683" id="Fill-80" fill="#3A62A8" mask="url(#mask-8)"></path>
                    </g>
                    <mask id="mask-10" fill="white">
                        <use xlink:href="#path-9"></use>
                    </mask>
                    <g id="Clip-84"></g>
                    <polygon id="Fill-83" fill="#CB957B" mask="url(#mask-10)" points="5.67 13.906024 8.7130509 13.906024 8.7130509 10.2303323 5.67 10.2303323"></polygon>
                    <path d="M12.844059,17.4204997 C12.8612237,14.8667362 12.882538,12.9527811 12.882538,12.9527811 C12.882538,12.9527811 9.92832844,11.6322332 8.78093623,11.358353 L8.78093623,11.4353111 C8.85336737,11.4824668 8.91108593,11.5375446 8.9025979,11.5920566 C8.85544222,11.8904578 7.25158293,12.3606943 7.19480749,12.3771045 C7.13822066,12.3606943 5.53436138,11.8904578 5.48720569,11.5920566 C5.47852904,11.5375446 5.53605898,11.4824668 5.60867874,11.4353111 L5.60867874,11.358353 C4.46128653,11.6322332 1.50707695,12.9527811 1.50707695,12.9527811 L1.48727156,17.4204997 L12.844059,17.4204997 Z" id="Fill-85" fill="#3A62A8" mask="url(#mask-10)"></path>
                </g>
                <g id="Group-169" transform="translate(20.748503, 41.053931)">
                    <path d="M91.8959686,36.4058326 L36.4248458,36.4058326 C35.5136093,36.4058326 34.7751512,35.6673746 34.7751512,34.7563266 L34.7751512,18.8691979 C34.7751512,17.95815 35.5136093,17.2196919 36.4248458,17.2196919 L91.8959686,17.2196919 C92.8070165,17.2196919 93.5454746,17.95815 93.5454746,18.8691979 L93.5454746,34.7563266 C93.5454746,35.6673746 92.8070165,36.4058326 91.8959686,36.4058326" id="Fill-87" fill="#000000"></path>
                    <path d="M91.8959686,36.4058326 L36.4248458,36.4058326 C35.5136093,36.4058326 34.7751512,35.6673746 34.7751512,34.7563266 L34.7751512,18.8691979 C34.7751512,17.95815 35.5136093,17.2196919 36.4248458,17.2196919 L91.8959686,17.2196919 C92.8070165,17.2196919 93.5454746,17.95815 93.5454746,18.8691979 L93.5454746,34.7563266 C93.5454746,35.6673746 92.8070165,36.4058326 91.8959686,36.4058326" id="Fill-89" fill="#04B39C"></path>
                    <path d="M89.0153219,20.6654901 L37.5350793,20.6654901 C37.1259566,20.6654901 36.7943578,20.9970889 36.7943578,21.4062117 L36.7943578,21.6674542 C36.7943578,22.0763883 37.1259566,22.4079871 37.5350793,22.4079871 L89.0153219,22.4079871 C89.424256,22.4079871 89.7558548,22.0763883 89.7558548,21.6674542 L89.7558548,21.4062117 C89.7558548,20.9970889 89.424256,20.6654901 89.0153219,20.6654901" id="Fill-91" fill="#D4EDFF"></path>
                    <path d="M89.0153219,24.6497874 L37.5350793,24.6497874 C37.1259566,24.6497874 36.7943578,24.9813862 36.7943578,25.390509 L36.7943578,25.6517515 C36.7943578,26.0606856 37.1259566,26.3922844 37.5350793,26.3922844 L89.0153219,26.3922844 C89.424256,26.3922844 89.7558548,26.0606856 89.7558548,25.6517515 L89.7558548,25.390509 C89.7558548,24.9813862 89.424256,24.6497874 89.0153219,24.6497874" id="Fill-93" fill="#D4EDFF"></path>
                    <path d="M68.1570404,28.6340659 L37.5350793,28.6340659 C37.1259566,28.6340659 36.7943578,28.9656647 36.7943578,29.3747874 L36.7943578,29.6360299 C36.7943578,30.0449641 37.1259566,30.3767515 37.5350793,30.3767515 L68.1570404,30.3767515 C68.5659746,30.3767515 68.8975734,30.0449641 68.8975734,29.6360299 L68.8975734,29.3747874 C68.8975734,28.9656647 68.5659746,28.6340659 68.1570404,28.6340659" id="Fill-95" fill="#D4EDFF"></path>
                    <path d="M193.849868,84.6915979 L103.998287,84.6915979 C101.273443,84.6915979 99.064482,82.4826368 99.064482,79.7579811 L99.064482,20.0683105 C99.064482,17.3432775 101.273443,15.1345051 103.998287,15.1345051 L193.849868,15.1345051 C196.574713,15.1345051 198.783674,17.3432775 198.783674,20.0683105 L198.783674,79.7579811 C198.783674,82.4826368 196.574713,84.6915979 193.849868,84.6915979" id="Fill-97" fill="#54B1FE"></path>
                    <path d="M144.503951,30.3105826 C144.507721,37.3818611 138.720209,43.1173132 131.577443,43.1208987 C124.434865,43.1244808 118.641506,37.3950647 118.63792,30.3235976 C118.634149,23.2523192 124.421661,17.5170557 131.564239,17.5132816 C138.707194,17.5096994 144.500365,23.2393042 144.503951,30.3105826" id="Fill-99" fill="#F7BD36"></path>
                    <path d="M142.433061,30.3116955 C142.436078,36.2506716 137.575458,41.0675308 131.5765,41.0705504 C125.577542,41.0737554 120.711829,36.2616117 120.70881,30.3226356 C120.705793,24.3836596 125.566413,19.5666117 131.565371,19.5635923 C137.564329,19.5605757 142.430042,24.3727195 142.433061,30.3116955" id="Fill-101" fill="#FFE06E"></path>
                    <path d="M165.887678,21.6735467 C165.89126,28.7448251 160.103937,34.4802772 152.961171,34.4838628 C145.818404,34.4874449 140.025234,28.7578401 140.021459,21.6865617 C140.017877,14.6152832 145.805201,8.87983114 152.947967,8.87624563 C160.090734,8.87266347 165.883904,14.6022683 165.887678,21.6735467" id="Fill-103" fill="#F7BD36"></path>
                    <path d="M163.816695,21.6745464 C163.819711,27.6135225 158.959091,32.4305704 152.960133,32.4335897 C146.961175,32.4366063 142.095463,27.6244626 142.092443,21.6854865 C142.089427,15.7465105 146.950046,10.9296512 152.949004,10.9266316 C158.947963,10.9234266 163.813675,15.7355704 163.816695,21.6745464" id="Fill-105" fill="#FFE06E"></path>
                    <path d="M183.171691,30.3107713 C183.175273,37.3820497 177.387949,43.1175018 170.245183,43.1210873 C163.102416,43.1246695 157.309246,37.3952533 157.305472,30.3237862 C157.30189,23.2525078 163.089213,17.5170557 170.231979,17.5134702 C177.374746,17.509888 183.167916,23.2394928 183.171691,30.3107713" id="Fill-107" fill="#F7BD36"></path>
                    <path d="M181.100707,30.3117898 C181.103723,36.2507659 176.243104,41.0678138 170.244146,41.0708332 C164.245187,41.0738497 159.379475,36.261706 159.376455,30.3227299 C159.373439,24.3837539 164.234059,19.5668946 170.233017,19.563875 C176.231975,19.5606701 181.097687,24.3728138 181.100707,30.3117898" id="Fill-109" fill="#FFE06E"></path>
                    <path d="M191.992481,80.7253518 L108.639331,80.7253518 C107.376313,80.7253518 106.352469,79.7015075 106.352469,78.4384895 L106.352469,34.0382021 C106.352469,32.7751841 107.376313,31.7513398 108.639331,31.7513398 L191.992481,31.7513398 C193.255499,31.7513398 194.279343,32.7751841 194.279343,34.0382021 L194.279343,78.4384895 C194.279343,79.7015075 193.255499,80.7253518 191.992481,80.7253518" id="Fill-111" fill="#ADD0F8"></path>
                    <path d="M142.76149,77.3865216 L98.0245105,77.3865216 C95.9300434,77.3865216 94.23225,75.6887281 94.23225,73.5944497 L94.23225,61.1734527 C94.23225,59.0789856 95.9300434,57.3811922 98.0245105,57.3811922 L142.76149,57.3811922 C144.855957,57.3811922 146.55375,59.0789856 146.55375,61.1734527 L146.55375,73.5944497 C146.55375,75.6887281 144.855957,77.3865216 142.76149,77.3865216" id="Fill-113" fill="#3A62A8"></path>
                    <path d="M141.899616,73.4698266 L137.795373,73.4698266 C137.426427,73.4698266 137.12746,73.1708596 137.12746,72.8019135 L137.12746,62.4940572 C137.12746,62.1249225 137.426427,61.8259554 137.795373,61.8259554 L141.899616,61.8259554 C142.268562,61.8259554 142.567717,62.1249225 142.567717,62.4940572 L142.567717,72.8019135 C142.567717,73.1708596 142.268562,73.4698266 141.899616,73.4698266" id="Fill-115" fill="#569ED8"></path>
                    <polygon id="Fill-117" fill="#FFFFFF" points="179.482134 24.9938731 177.72002 25.9575467 179.482134 26.921409 180.445807 28.6835228 181.409481 26.921409 183.171783 25.9575467 181.409481 24.9938731 180.445807 23.2317593"></polygon>
                    <polygon id="Fill-119" fill="#FFFFFF" points="175.211677 28.1254823 174.191416 28.6834284 175.211677 29.2415632 175.769623 30.261635 176.327757 29.2415632 177.347829 28.6834284 176.327757 28.1254823 175.769623 27.1052219"></polygon>
                    <polygon id="Fill-121" fill="#FFFFFF" points="125.547456 20.1843701 123.785343 21.1480437 125.547456 22.1117174 126.51113 23.8740198 127.474992 22.1117174 129.237106 21.1480437 127.474992 20.1843701 126.51113 18.4222563"></polygon>
                    <polygon id="Fill-123" fill="#FFFFFF" points="121.276999 23.315885 120.256739 23.8738311 121.276999 24.4319659 121.834946 25.4522263 122.39308 24.4319659 123.413341 23.8738311 122.39308 23.315885 121.834946 22.2956246"></polygon>
                    <polygon id="Fill-125" fill="#C9937A" points="14.4703832 30.567185 12.4200539 30.7335503 12.1982335 27.9996521 14.2485629 27.8332868"></polygon>
                    <path d="M23.1363916,77.8477608 L22.869679,79.2762009 C22.7323617,79.2413057 20.9576102,78.9195153 20.9576102,78.9195153 L21.2243228,77.4908865 L23.1363916,77.8477608 Z" id="Fill-127" fill="#C9937A"></path>
                    <path d="M23.4383955,78.8586467 C23.4383955,78.8586467 27.1853865,81.7043982 27.2638536,81.7574012 C27.2985602,81.780979 27.4951051,81.8675569 27.7029674,81.9567754 C28.0302278,82.0969222 28.2169644,82.4275778 28.1554734,82.7554042 C28.1337817,82.8710299 28.1117129,82.9628892 28.0937937,82.9800539 C28.0402249,83.0315479 20.1254254,81.4925749 20.1254254,81.4925749 C20.1254254,81.4925749 20.4157159,78.9120269 20.8535093,78.8909012 C21.2913027,78.8697754 22.6610811,79.4752545 23.4383955,78.8586467" id="Fill-129" fill="#3A62A8"></path>
                    <polygon id="Fill-131" fill="#FFFFFF" points="25.5865069 80.4864422 25.0868452 81.0906009 25.3160219 81.2803554 25.8232284 80.6669542"></polygon>
                    <polygon id="Fill-133" fill="#FFFFFF" points="26.0035329 80.8043847 25.5261287 81.3815704 25.7553054 81.5709476 26.2402545 80.9847081"></polygon>
                    <polygon id="Fill-135" fill="#FFFFFF" points="26.3978299 81.1048231 25.9383449 81.6603171 26.1673329 81.8498829 26.6345515 81.2849578"></polygon>
                    <path d="M11.2498006,77.559847 L11.5165132,78.9882871 C11.6538305,78.9532033 13.428582,78.6314129 13.428582,78.6314129 L13.1618695,77.2029728 L11.2498006,77.559847 Z" id="Fill-137" fill="#C9937A"></path>
                    <path d="M10.9477967,78.5707518 C10.9477967,78.5707518 7.20080569,81.4165033 7.12233862,81.4693177 C7.08763204,81.4928955 6.89108713,81.5794734 6.68322485,81.6686919 C6.35596437,81.8090272 6.16922784,82.1396829 6.23071886,82.4675093 C6.25241048,82.5829464 6.27447934,82.6749943 6.2923985,82.6919704 C6.34596737,82.743653 14.2607668,81.2046799 14.2607668,81.2046799 C14.2607668,81.2046799 13.9704763,78.624132 13.5326829,78.6028177 C13.0948895,78.5818805 11.7251111,79.1873596 10.9477967,78.5707518" id="Fill-139" fill="#3A62A8"></path>
                    <polygon id="Fill-141" fill="#FFFFFF" points="8.79972305 80.1985473 9.29938473 80.802706 9.07020808 80.9922719 8.5630015 80.3788707"></polygon>
                    <polygon id="Fill-143" fill="#FFFFFF" points="8.38264042 80.5162823 8.86004461 81.093468 8.63086796 81.2828452 8.14591886 80.6967943"></polygon>
                    <polygon id="Fill-145" fill="#FFFFFF" points="7.98841886 80.8167207 8.44790389 81.3724033 8.21872725 81.5619692 7.75150868 80.9968554"></polygon>
                    <path d="M11.8805928,28.8103527 C11.8805928,28.8103527 12.8146527,30.7701431 14.1663234,29.3964036 C14.9251527,28.6251251 14.6576856,28.1520593 14.6576856,28.1520593 L20.9963533,24.8952988 L22.4747784,28.6045653 L18.1136317,31.9782719 L21.3305928,48.5616072 L9.84497605,49.3034605 L9.35021856,34.0765114 L3.59043413,31.9929844 L5.2961497,29.1491192 L11.8805928,28.8103527 Z" id="Fill-147" fill="#04B39C"></path>
                    <path d="M21.3306683,48.5616826 C21.3306683,48.5616826 24.6800425,56.1786467 25.0091892,59.6345928 C25.3383359,63.0905389 23.6267731,78.1401826 23.6267731,78.1401826 L20.3354946,77.4818892 C20.3354946,77.4818892 20.4011353,61.9386198 19.2492162,59.9637395 C18.097297,57.9888593 16.0565874,52.0557305 16.0565874,52.0557305 C16.0565874,52.0557305 14.3789766,56.3876407 13.6056234,59.8979102 C12.8034108,63.5388952 13.7525605,77.6465569 13.7525605,77.6465569 L10.6257611,77.6465569 C10.6257611,77.6465569 7.92788982,60.8851617 8.42170419,58.087509 C8.91532994,55.2898563 9.8450515,49.3035359 9.8450515,49.3035359 L21.3306683,48.5616826 Z" id="Fill-149" fill="#3A62A8"></path>
                    <path d="M9.63062515,24.350179 C9.60214311,24.3477269 9.5721521,24.3479156 9.54725389,24.3618737 C9.51726287,24.3784725 9.50104132,24.4120473 9.48896946,24.4443018 C9.40880479,24.6568796 9.42823293,24.897185 9.50122994,25.1124036 C9.57422695,25.3274335 9.69720898,25.521715 9.82452934,25.7097719 C9.97806826,25.9364964 10.1693317,26.1764246 10.4403826,26.2145263 C10.4675443,26.2182988 10.497724,26.2192419 10.5196042,26.2024545 C10.536203,26.1896281 10.544691,26.1690683 10.5511042,26.1490743 C10.6265533,25.9142389 10.5226222,25.6614844 10.403224,25.4455114 C10.2044156,25.0863737 10.1444335,24.3945054 9.63062515,24.350179" id="Fill-151" fill="#C9937A"></path>
                    <path d="M16.4629374,24.2324784 C16.4763296,24.4873078 16.343162,24.7230862 16.2518686,24.9613168 C16.2035811,25.0875054 16.1666111,25.2176551 16.1409584,25.3502569 C16.111156,25.5054934 16.0951231,25.6695952 16.0096769,25.8023856 C15.9244195,25.9353647 15.7390033,26.0221311 15.6045153,25.9389485 C15.4934165,25.8702898 15.4655003,25.7233527 15.4483356,25.5937689 C15.383638,25.1059904 15.413629,24.692718 15.718632,24.2877449 C15.9089524,24.0353677 16.4312488,23.630206 16.4629374,24.2324784" id="Fill-153" fill="#C9937A"></path>
                    <path d="M10.2710937,24.0945952 C10.2859949,24.4269485 10.3156087,24.759679 10.3797404,25.0865623 C10.450474,25.4460772 10.5640249,25.7986132 10.7407644,26.1205922 C10.9350458,26.4742599 11.2006266,26.7837898 11.4862015,27.0684216 C11.7425398,27.3238168 12.0435817,27.5735533 12.4040398,27.6027898 C12.7712883,27.6325922 13.1266536,27.4258617 13.4940907,27.4534006 C13.74345,27.4718856 13.9894141,27.5978856 14.2334919,27.5428078 C14.5426446,27.473206 14.711462,27.1521701 14.9168722,26.9105443 C15.0902165,26.7064545 15.3129799,26.5415982 15.4478452,26.3101581 C15.5497015,26.1354934 15.5942165,25.9340443 15.6374111,25.7365563 C15.6915458,25.4892719 15.7456805,25.2414216 15.7681266,24.9892329 C15.8386716,24.192679 15.590444,23.4070653 15.4942464,22.612209 C15.3027943,22.4260383 15.046456,22.3109784 14.7931356,22.2174216 C14.5228392,22.1176401 14.2321716,22.0333257 13.9492374,22.0884036 C13.7355278,22.1300892 13.5431326,22.2523168 13.398459,22.4162299 C13.3814829,22.4171731 13.3643183,22.4183048 13.3471536,22.4194365 C12.7482763,22.460179 12.1518512,22.5401551 11.5631596,22.6586102 C11.1148033,22.7489605 10.6509799,22.8719425 10.3120249,23.1788317 C10.263926,23.222215 10.2216746,23.2684275 10.1816865,23.3155832 C10.3210787,23.4068766 10.2660009,23.9808557 10.2710937,24.0945952" id="Fill-155" fill="#C9937A"></path>
                    <path d="M15.8852425,23.7226877 C15.8584581,23.3618524 16.2421168,22.862568 15.5842006,22.7103494 C15.5406287,22.7003524 15.5259162,22.6430111 15.4942275,22.6122656 C15.5904251,23.4071219 15.8386527,24.1927356 15.7681078,24.9892895 C15.7456617,25.2412895 15.6915269,25.4893284 15.6375808,25.7364243 C15.5943862,25.9341009 15.5496826,26.13555 15.4478263,26.3102147 C15.3129611,26.5416548 15.0901976,26.7063225 14.9168533,26.9104123 C14.7114431,27.1522266 14.5426257,27.473074 14.2334731,27.5428644 C13.9893952,27.5977536 13.7434311,27.4719422 13.4940719,27.4532686 C13.1266347,27.4259183 12.7712695,27.6326488 12.404021,27.6028464 C12.0435629,27.5736099 11.742521,27.3238734 11.4861826,27.0684781 C11.2006078,26.7838464 10.9350269,26.4741278 10.7407455,26.1206488 C10.564006,25.7984811 10.4504551,25.4461338 10.3799102,25.0864302 C10.3155898,24.7597356 10.285976,24.4270051 10.2710749,24.0946518 C10.2669251,24.0018494 10.3025749,23.6029123 10.2403293,23.4093853 C10.2407066,23.4059901 10.2408952,23.4025949 10.2412725,23.3993883 C10.2463653,23.3407266 10.2516467,23.2818763 10.2514581,23.223026 C10.2510808,23.171532 10.2463653,23.1190949 10.2258054,23.0717506 C10.2052455,23.0245949 10.1663892,22.9832865 10.1165928,22.9702716 C10.0649102,22.9566907 10.0090778,22.9753644 9.96607186,23.007053 C9.92306587,23.0387416 9.89062275,23.0823135 9.85893413,23.1253195 C9.81573952,23.1837925 9.77047006,23.2494332 9.77669461,23.3218644 C9.77876946,23.3441219 9.7857485,23.3658135 9.79065269,23.3878823 C9.79914072,23.4257955 9.80140419,23.4646518 9.80366766,23.5036967 L9.83290419,24.0037356 C9.83686527,24.0706967 9.83780838,24.136526 9.83837425,24.2023554 C9.83705389,24.2178225 9.83686527,24.2312147 9.8387515,24.2406458 C9.83912874,24.2987416 9.83950599,24.357026 9.84139222,24.4156877 C9.85987725,24.9708045 10.056988,25.514038 10.2980479,26.0084183 C10.5208114,26.4648853 10.7935599,26.9034332 11.1157275,27.2967117 C11.4277096,27.677541 11.7959012,28.0221548 12.2370898,28.2411458 C12.6782784,28.4597596 13.1990659,28.5436967 13.6706228,28.4014751 C14.1348234,28.2615171 14.5092395,27.9223734 14.8515898,27.5790799 C15.3397455,27.0894153 15.8139431,26.5433524 15.9899281,25.8746847 C16.1147964,25.4004871 16.0799012,24.9010141 16.0440629,24.4119153 C16.0267096,24.1746278 16.0052066,23.9273434 15.8852425,23.7226877" id="Fill-157" fill="#3A62A8"></path>
                    <path d="M10.1023518,21.3928195 C10.4418728,20.8275171 11.000762,20.3982117 11.6343458,20.2160021 C11.8788009,20.1456458 12.131744,20.1111278 12.3839326,20.0779302 C13.267253,19.9619272 14.1866003,19.848565 14.9363757,19.3673883 C15.3500254,19.1019961 15.6918099,18.736068 16.1048937,18.4699213 C16.1563877,18.4369123 16.2118428,18.4044692 16.2729566,18.4023943 C16.3985793,18.3978674 16.4900614,18.5178314 16.5472141,18.630062 C16.7873308,19.1004871 16.8290165,19.6546608 16.7416841,20.1756368 C16.6545404,20.6966129 16.445735,21.1894841 16.2050524,21.6597207 C16.0520793,21.9586877 15.8800554,22.2846278 15.9511662,22.6128314 C15.9822889,22.756562 16.0535883,22.9251907 15.9560704,23.0351578 C15.837238,23.1690799 15.6190015,23.0581698 15.483759,22.9406578 C15.303247,22.7839123 15.1134925,22.6135859 14.8769596,22.5785021 C14.6325045,22.5420979 14.3952171,22.6582895 14.15925,22.732041 C13.4289027,22.9598973 12.6016033,22.7907027 11.9065284,23.1102296 C11.6418907,23.2320799 11.4130913,23.418062 11.1669386,23.5736757 C10.9205973,23.7292895 10.641247,23.8579302 10.3503907,23.8424632 C9.76452844,23.811529 9.75641766,23.3810919 9.73283982,22.9349991 C9.70454641,22.3961039 9.82337874,21.8573973 10.1023518,21.3928195" id="Fill-159" fill="#3A62A8"></path>
                    <path d="M5.09160719,20.0638967 L5.58598743,19.1824626 C5.58598743,19.1824626 5.8195024,17.4578847 6.2746491,17.0378219 C6.72979581,16.617759 7.22926886,15.7067111 7.92245749,15.2694835 C8.61564611,14.832256 9.37937964,15.4054805 9.56026886,15.6484266 C9.74115808,15.8915614 8.84067305,17.2149386 8.49832275,17.695738 C8.15597246,18.176726 8.6479006,18.4211811 8.57452635,18.9429117 C8.5011521,19.4648308 7.33470898,19.4469117 7.15966707,19.6774087 C7.05913114,19.8098219 6.84957126,20.2915644 6.68754431,20.6673009 L6.68886467,20.6680554 C6.68886467,20.6680554 6.67660419,20.6952171 6.65415808,20.7444476 C6.56286467,20.9564596 6.49231976,21.1194296 6.47553234,21.1384805 C5.75782275,22.7240434 3.28686467,28.2763428 3.39494551,28.4606272 C3.52320898,28.679241 5.30795749,29.2319057 5.30795749,29.2319057 L4.41313114,31.8856392 C4.41313114,31.8856392 0.0908407186,29.9101931 0.154972455,29.1085464 C0.212313772,28.3915913 4.26751437,21.4021751 5.09160719,20.0638967" id="Fill-161" fill="#C9937A"></path>
                    <path d="M19.2023434,9.13547156 C19.2023434,14.129259 15.1541219,18.1774805 10.1603344,18.1774805 C5.16673563,18.1774805 1.11851407,14.129259 1.11851407,9.13547156 C1.11851407,4.14168413 5.16673563,0.0934625749 10.1603344,0.0934625749 C15.1541219,0.0934625749 19.2023434,4.14168413 19.2023434,9.13547156" id="Fill-163" fill="#F7BD36"></path>
                    <path d="M17.7544751,9.13547156 C17.7544751,13.3294985 14.35455,16.7296123 10.1603344,16.7296123 C5.96630749,16.7296123 2.56638234,13.3294985 2.56638234,9.13547156 C2.56638234,4.94144461 5.96630749,1.54133084 10.1603344,1.54133084 C14.35455,1.54133084 17.7544751,4.94144461 17.7544751,9.13547156" id="Fill-165" fill="#FFE06E"></path>
                    <path d="M20.9303542,16.1142305 L20.435974,15.2327964 C20.435974,15.2327964 20.202459,13.5082186 19.7473123,13.0881557 C19.2921656,12.6680928 18.7926925,11.7570449 18.0995039,11.3198174 C17.4063153,10.8825898 16.6425817,11.4558144 16.4616925,11.6987605 C16.2808033,11.9417066 17.1812883,13.2652725 17.5236386,13.7460719 C17.8661775,14.2270599 17.3740608,14.471515 17.447435,14.9932455 C17.5208093,15.5151647 18.6872524,15.4972455 18.8622943,15.7277425 C18.9628302,15.8601557 19.1723901,16.3417096 19.3344171,16.7174461 L19.3330967,16.7183892 C19.3330967,16.7183892 19.3453572,16.7455509 19.3678033,16.7947814 C19.4590967,17.0066048 19.5296416,17.1697635 19.546429,17.1888144 C20.2641386,18.7743772 22.540438,23.8368234 22.4323572,24.0209192 C22.3040937,24.2397216 20.6498722,25.112479 20.6498722,25.112479 L21.8014141,28.3975329 C21.8014141,28.3975329 25.7753183,25.3369401 25.7111865,24.535482 C25.6538452,23.8185269 21.754447,17.452509 20.9303542,16.1142305" id="Fill-167" fill="#C9937A"></path>
                </g>
            </g>
        </g>
    </g>
</svg>